<svg width="150" height="30" viewBox="0 0 150 30" fill="none" xmlns="http://www.w3.org/2000/svg">
<path d="M16.0325 29.48C13.8725 29.48 11.8592 29.1333 9.9925 28.44C8.1525 27.72 6.5525 26.7067 5.1925 25.4C3.8325 24.0933 2.76583 22.56 1.9925 20.8C1.24583 19.04 0.8725 17.1067 0.8725 15C0.8725 12.8933 1.24583 10.96 1.9925 9.2C2.76583 7.44 3.8325 5.90667 5.1925 4.6C6.57917 3.29333 8.1925 2.29333 10.0325 1.6C11.8725 0.879999 13.8858 0.52 16.0725 0.52C18.4992 0.52 20.6858 0.946666 22.6325 1.8C24.6058 2.62667 26.2592 3.85333 27.5925 5.48L23.4325 9.32C22.4725 8.22667 21.4058 7.41333 20.2325 6.88C19.0592 6.32 17.7792 6.04 16.3925 6.04C15.0858 6.04 13.8858 6.25333 12.7925 6.68C11.6992 7.10666 10.7525 7.72 9.9525 8.52C9.1525 9.32 8.52583 10.2667 8.0725 11.36C7.64583 12.4533 7.4325 13.6667 7.4325 15C7.4325 16.3333 7.64583 17.5467 8.0725 18.64C8.52583 19.7333 9.1525 20.68 9.9525 21.48C10.7525 22.28 11.6992 22.8933 12.7925 23.32C13.8858 23.7467 15.0858 23.96 16.3925 23.96C17.7792 23.96 19.0592 23.6933 20.2325 23.16C21.4058 22.6 22.4725 21.76 23.4325 20.64L27.5925 24.48C26.2592 26.1067 24.6058 27.3467 22.6325 28.2C20.6858 29.0533 18.4858 29.48 16.0325 29.48ZM34.295 29V6.28H25.335V0.999998H49.735V6.28H40.775V29H34.295ZM59.0262 29.48C56.7862 29.48 54.6396 29.1867 52.5862 28.6C50.5329 27.9867 48.8796 27.2 47.6262 26.24L49.8262 21.36C51.0262 22.2133 52.4396 22.92 54.0662 23.48C55.7196 24.0133 57.3862 24.28 59.0662 24.28C60.3462 24.28 61.3729 24.16 62.1462 23.92C62.9462 23.6533 63.5329 23.2933 63.9062 22.84C64.2796 22.3867 64.4662 21.8667 64.4662 21.28C64.4662 20.5333 64.1729 19.9467 63.5862 19.52C62.9996 19.0667 62.2262 18.7067 61.2662 18.44C60.3062 18.1467 59.2396 17.88 58.0662 17.64C56.9196 17.3733 55.7596 17.0533 54.5862 16.68C53.4396 16.3067 52.3862 15.8267 51.4262 15.24C50.4662 14.6533 49.6796 13.88 49.0662 12.92C48.4796 11.96 48.1862 10.7333 48.1862 9.24C48.1862 7.64 48.6129 6.18667 49.4662 4.88C50.3462 3.54666 51.6529 2.49333 53.3862 1.72C55.1462 0.919999 57.3462 0.52 59.9862 0.52C61.7462 0.52 63.4796 0.733332 65.1862 1.16C66.8929 1.56 68.3996 2.17333 69.7063 3L67.7062 7.92C66.3996 7.17333 65.0929 6.62667 63.7862 6.28C62.4796 5.90667 61.1996 5.72 59.9462 5.72C58.6929 5.72 57.6662 5.86667 56.8662 6.16C56.0662 6.45333 55.4929 6.84 55.1462 7.32C54.7996 7.77333 54.6262 8.30667 54.6262 8.92C54.6262 9.64 54.9196 10.2267 55.5062 10.68C56.0929 11.1067 56.8662 11.4533 57.8262 11.72C58.7862 11.9867 59.8396 12.2533 60.9862 12.52C62.1596 12.7867 63.3196 13.0933 64.4662 13.44C65.6396 13.7867 66.7062 14.2533 67.6663 14.84C68.6262 15.4267 69.3996 16.2 69.9862 17.16C70.5996 18.12 70.9062 19.3333 70.9062 20.8C70.9062 22.3733 70.4662 23.8133 69.5862 25.12C68.7062 26.4267 67.3862 27.48 65.6262 28.28C63.8929 29.08 61.6929 29.48 59.0262 29.48ZM82.0941 29.32C79.7741 29.32 77.7074 28.8533 75.8941 27.92C74.0807 26.96 72.6541 25.64 71.6141 23.96C70.6007 22.28 70.0941 20.3733 70.0941 18.24C70.0941 16.08 70.6007 14.1733 71.6141 12.52C72.6541 10.84 74.0807 9.53333 75.8941 8.6C77.7074 7.64 79.7741 7.16 82.0941 7.16C84.3607 7.16 86.3341 7.64 88.0141 8.6C89.6941 9.53333 90.9341 10.88 91.7341 12.64L86.8941 15.24C86.3341 14.2267 85.6274 13.48 84.7741 13C83.9474 12.52 83.0407 12.28 82.0541 12.28C80.9874 12.28 80.0274 12.52 79.1741 13C78.3207 13.48 77.6407 14.16 77.1341 15.04C76.6541 15.92 76.4141 16.9867 76.4141 18.24C76.4141 19.4933 76.6541 20.56 77.1341 21.44C77.6407 22.32 78.3207 23 79.1741 23.48C80.0274 23.96 80.9874 24.2 82.0541 24.2C83.0407 24.2 83.9474 23.9733 84.7741 23.52C85.6274 23.04 86.3341 22.28 86.8941 21.24L91.7341 23.88C90.9341 25.6133 89.6941 26.96 88.0141 27.92C86.3341 28.8533 84.3607 29.32 82.0941 29.32ZM105.327 29V24.8L104.927 23.88V16.36C104.927 15.0267 104.514 13.9867 103.687 13.24C102.887 12.4933 101.647 12.12 99.9669 12.12C98.8202 12.12 97.6869 12.3067 96.5669 12.68C95.4735 13.0267 94.5402 13.5067 93.7669 14.12L91.5269 9.76C92.7002 8.93333 94.1135 8.29333 95.7669 7.84C97.4202 7.38667 99.1002 7.16 100.807 7.16C104.087 7.16 106.634 7.93333 108.447 9.48C110.26 11.0267 111.167 13.44 111.167 16.72V29H105.327ZM98.7669 29.32C97.0869 29.32 95.6469 29.04 94.4469 28.48C93.2469 27.8933 92.3269 27.1067 91.6869 26.12C91.0469 25.1333 90.7269 24.0267 90.7269 22.8C90.7269 21.52 91.0335 20.4 91.6469 19.44C92.2869 18.48 93.2869 17.7333 94.6469 17.2C96.0069 16.64 97.7802 16.36 99.9669 16.36H105.687V20H100.647C99.1802 20 98.1669 20.24 97.6069 20.72C97.0735 21.2 96.8069 21.8 96.8069 22.52C96.8069 23.32 97.1135 23.96 97.7269 24.44C98.3669 24.8933 99.2335 25.12 100.327 25.12C101.367 25.12 102.3 24.88 103.127 24.4C103.954 23.8933 104.554 23.16 104.927 22.2L105.887 25.08C105.434 26.4667 104.607 27.52 103.407 28.24C102.207 28.96 100.66 29.32 98.7669 29.32ZM141.174 7.16C142.881 7.16 144.388 7.50667 145.694 8.2C147.028 8.86667 148.068 9.90667 148.814 11.32C149.588 12.7067 149.974 14.4933 149.974 16.68V29H143.734V17.64C143.734 15.9067 143.374 14.6267 142.654 13.8C141.934 12.9733 140.921 12.56 139.614 12.56C138.708 12.56 137.894 12.7733 137.174 13.2C136.454 13.6 135.894 14.2133 135.494 15.04C135.094 15.8667 134.894 16.92 134.894 18.2V29H128.654V17.64C128.654 15.9067 128.294 14.6267 127.574 13.8C126.881 12.9733 125.881 12.56 124.574 12.56C123.668 12.56 122.854 12.7733 122.134 13.2C121.414 13.6 120.854 14.2133 120.454 15.04C120.054 15.8667 119.854 16.92 119.854 18.2V29H113.614V7.48H119.574V13.36L118.454 11.64C119.201 10.1733 120.254 9.06667 121.614 8.32C123.001 7.54667 124.574 7.16 126.334 7.16C128.308 7.16 130.028 7.66667 131.494 8.68C132.988 9.66667 133.974 11.1867 134.454 13.24L132.254 12.64C132.974 10.96 134.121 9.62667 135.694 8.64C137.294 7.65333 139.121 7.16 141.174 7.16Z" fill="url(#paint0_linear_54_17)"/>
<defs>
<linearGradient id="paint0_linear_54_17" x1="153" y1="39" x2="-1" y2="39" gradientUnits="userSpaceOnUse">
<stop stop-color="#F0F0F0"/>
<stop offset="0.369792" stop-color="#F0F0F0"/>
<stop offset="0.557292" stop-color="#6A0000"/>
</linearGradient>
</defs>
</svg>
